<?xml version="1.0" standalone="no"?>
<!DOCTYPE svg PUBLIC "-//W3C//DTD SVG 20010904//EN"
 "http://www.w3.org/TR/2001/REC-SVG-20010904/DTD/svg10.dtd">
<svg version="1.0" xmlns="http://www.w3.org/2000/svg"
 width="597.000000pt" height="597.000000pt" viewBox="0 0 597.000000 597.000000"
 preserveAspectRatio="xMidYMid meet">
<metadata>
Created by potrace 1.15, written by Peter Selinger 2001-2017
</metadata>
<g transform="translate(0.000000,597.000000) scale(0.100000,-0.100000)"
fill="#000000" stroke="none">
<path d="M2755 5854 c-583 -59 -1061 -242 -1510 -578 -163 -122 -432 -392
-556 -558 -299 -400 -481 -841 -555 -1342 -21 -146 -29 -474 -15 -635 64 -718
374 -1356 902 -1854 413 -389 947 -653 1502 -740 l89 -14 -7 51 c-7 53 -65
460 -109 766 -14 96 -30 206 -37 243 -8 50 -8 71 0 81 9 10 7 15 -7 18 -16 5
-21 22 -31 112 -7 59 -17 119 -22 134 -32 83 -66 304 -75 478 -10 194 33 355
119 451 l36 39 -9 85 c-4 46 -12 109 -16 139 l-7 55 87 -109 c102 -128 181
-216 194 -216 5 0 8 -10 8 -22 -1 -14 4 -22 13 -20 7 1 19 -2 26 -8 8 -6 19
-10 27 -9 7 2 24 0 38 -4 14 -4 43 -13 65 -19 22 -7 49 -18 60 -25 11 -7 36
-13 57 -13 23 0 38 -5 38 -12 0 -8 3 -9 11 -1 7 7 19 2 40 -18 23 -22 41 -29
82 -31 43 -2 51 -6 49 -20 -2 -13 4 -18 23 -18 14 0 25 5 25 12 0 6 3 8 7 4
12 -12 9 -40 -4 -54 -17 -18 -16 -33 1 -26 23 9 27 -25 6 -46 -11 -11 -15 -20
-10 -20 7 0 7 -7 0 -20 -6 -11 -15 -18 -21 -15 -5 4 -9 0 -9 -8 0 -7 -11 -20
-25 -27 -13 -7 -22 -17 -19 -22 3 -4 -4 -8 -14 -8 -33 0 -34 -26 -1 -28 18 -1
29 3 29 10 1 8 6 6 15 -6 8 -10 19 -15 26 -10 8 4 10 3 5 -5 -10 -16 1 -61 15
-61 6 0 9 6 6 14 -3 8 1 17 9 20 9 3 12 10 9 16 -3 5 1 10 9 10 18 0 21 16 6
25 -6 4 -8 11 -4 16 3 5 9 7 14 4 7 -4 34 47 31 60 -1 3 5 18 13 34 9 16 12
32 8 36 -4 3 -7 16 -8 28 -1 12 -3 27 -5 32 -2 6 0 10 6 10 5 0 9 -6 7 -12 -4
-19 22 -6 36 18 16 25 8 37 -12 20 -23 -19 -25 17 -3 59 9 19 15 40 12 47 -2
7 2 13 10 13 17 0 20 17 4 22 -5 2 4 22 20 46 17 23 31 51 31 61 0 11 5 23 10
26 6 4 8 11 5 16 -4 5 1 12 9 15 9 3 16 13 16 21 0 8 11 29 25 47 14 18 25 38
25 44 0 7 4 12 9 12 5 0 11 9 14 20 4 14 10 18 23 13 14 -5 16 -3 11 11 -4 10
-3 15 3 11 5 -3 6 -20 3 -38 -6 -29 -5 -31 10 -18 19 15 22 8 8 -18 -6 -10
-12 -51 -15 -92 -2 -41 -7 -82 -11 -91 -4 -11 -3 -18 4 -18 14 0 14 -60 1 -94
-5 -14 -6 -26 -2 -26 4 0 8 -21 9 -48 3 -75 7 -96 21 -107 32 -25 -177 -252
-283 -307 -22 -11 -56 -21 -77 -22 -21 0 -38 -3 -38 -6 0 -3 -11 -6 -24 -6
-14 -1 -36 -14 -50 -29 -26 -27 -30 -38 -27 -63 1 -6 -2 -12 -7 -12 -4 0 -19
-10 -31 -21 -18 -17 -25 -19 -31 -9 -4 7 -15 10 -24 7 -8 -3 -18 -2 -21 3 -4
6 0 10 7 10 7 0 1 8 -12 17 -14 9 -27 19 -30 22 -3 4 -41 28 -84 54 -97 59
-183 128 -302 240 -112 105 -154 177 -154 260 0 31 -5 59 -11 63 -21 12 -3
-126 21 -173 12 -24 56 -78 98 -121 130 -132 443 -386 513 -415 51 -21 109 4
191 82 37 35 85 74 106 86 72 41 232 219 308 344 30 47 36 117 21 219 -5 32
-4 52 2 52 11 0 71 -116 71 -138 0 -9 12 -45 26 -81 24 -60 26 -74 21 -161 -3
-52 -12 -129 -21 -170 -8 -41 -26 -158 -41 -260 -14 -102 -39 -230 -55 -285
-33 -114 -41 -154 -104 -500 -53 -290 -88 -442 -106 -458 -10 -10 -11 -8 -6 8
4 11 4 49 -1 85 l-7 65 -7 -65 c-4 -36 -7 -102 -8 -147 0 -45 -6 -105 -12
-133 -6 -28 -9 -53 -7 -55 7 -7 193 34 317 70 726 209 1348 707 1720 1379 186
336 304 726 342 1130 14 156 7 497 -15 642 -94 631 -357 1168 -791 1612 -454
467 -1009 749 -1670 848 -96 15 -530 27 -620 18z m479 -805 c-6 -11 10 -12 20
-2 18 18 123 3 139 -20 7 -9 10 -9 14 0 3 9 15 7 44 -10 21 -12 39 -26 39 -30
0 -5 -4 -5 -10 -2 -5 3 -10 2 -10 -4 0 -5 8 -12 18 -15 16 -6 36 -39 103 -181
10 -22 19 -50 19 -61 0 -12 7 -27 15 -34 8 -7 15 -19 15 -26 0 -8 4 -14 10
-14 5 0 7 -13 4 -28 -5 -25 -3 -29 17 -28 13 1 24 -3 24 -9 1 -5 9 -28 19 -50
9 -22 15 -50 13 -62 -3 -14 0 -20 9 -16 7 3 15 -8 19 -27 4 -20 12 -30 20 -26
14 5 25 -14 25 -45 0 -11 4 -18 9 -15 4 3 15 -13 24 -35 14 -36 14 -43 2 -56
-8 -8 -15 -24 -15 -36 0 -18 -2 -19 -10 -7 -12 20 -21 9 -13 -18 7 -28 15 -28
33 3 l15 25 0 -39 c0 -24 -4 -37 -10 -34 -5 2 -3 -2 6 -9 14 -11 18 -41 24
-151 4 -76 3 -137 -2 -137 -5 0 -14 15 -22 33 -7 18 -15 27 -18 19 -3 -7 -1
-18 4 -25 16 -20 -2 -187 -19 -187 -6 0 -8 7 -4 15 3 8 2 15 -3 15 -11 0 -33
-49 -26 -60 3 -5 -1 -10 -7 -13 -10 -3 -8 -9 5 -24 14 -16 15 -25 7 -44 -10
-23 -10 -23 -5 4 3 15 1 27 -5 27 -10 0 -15 -25 -10 -45 7 -26 8 -185 1 -185
-4 0 -6 -14 -3 -30 6 -42 -39 -130 -67 -130 -13 0 -42 -60 -35 -72 3 -5 0 -8
-5 -8 -6 0 -10 -5 -9 -12 2 -6 -9 -18 -23 -25 -15 -7 -32 -26 -39 -43 -7 -16
-16 -30 -21 -30 -4 0 -24 -25 -45 -55 -33 -51 -37 -54 -50 -38 -12 16 -13 16
-14 1 0 -20 -50 -57 -67 -51 -7 3 -13 0 -13 -7 0 -15 -61 -70 -72 -64 -4 3 -8
0 -8 -5 0 -6 -6 -11 -14 -11 -15 0 -24 -33 -18 -63 3 -15 6 -16 20 -5 14 11
15 10 9 -7 -6 -17 -5 -18 5 -5 13 16 61 40 79 40 12 0 1 -42 -14 -51 -5 -4 -6
-12 -2 -18 7 -12 -52 -106 -84 -135 -9 -9 -34 -22 -54 -31 l-38 -16 16 33 c9
18 20 41 26 51 14 25 20 77 9 77 -9 0 -60 -102 -60 -118 0 -4 -15 -9 -32 -10
-18 -2 -35 -7 -36 -12 -2 -6 -8 -7 -13 -4 -6 3 -19 -2 -30 -12 -10 -9 -22 -14
-26 -11 -3 4 -1 7 5 7 7 0 12 7 12 16 0 13 -5 12 -28 -5 -21 -15 -32 -17 -40
-9 -8 8 -15 8 -25 0 -29 -25 -128 -18 -175 12 -57 36 -142 123 -142 146 0 11
-4 20 -9 20 -5 0 -14 14 -21 30 -7 17 -16 30 -21 30 -5 0 -9 6 -9 13 0 7 -9
18 -20 25 -12 7 -19 16 -16 20 7 11 -7 30 -24 34 -8 2 -29 17 -48 33 -19 17
-39 29 -45 27 -15 -4 -48 30 -64 66 -7 17 -19 32 -26 32 -13 0 -77 124 -102
200 -44 129 -62 190 -56 190 3 0 1 4 -4 8 -13 8 -69 180 -89 272 -21 92 -38
511 -23 527 4 3 4 28 1 55 -4 31 -3 48 4 48 14 0 22 42 27 141 8 163 16 221
37 270 18 39 28 51 57 60 69 22 102 42 117 71 9 17 18 27 21 24 3 -3 0 -12 -7
-21 -7 -8 -8 -15 -2 -15 5 0 12 6 15 14 7 19 65 28 105 17 20 -6 32 -6 32 0 0
5 11 2 25 -7 14 -9 46 -17 72 -18 27 -1 57 -7 68 -13 11 -6 38 -10 60 -8 22 1
59 3 83 4 35 1 49 7 72 33 24 26 29 39 26 72 -2 23 -2 34 1 24 8 -30 30 -29
25 1 -3 24 1 30 30 41 18 7 41 20 50 28 20 16 95 26 103 12 8 -13 77 -2 93 14
15 15 65 19 56 5z m893 -1063 c26 -22 28 -30 27 -94 0 -73 -2 -78 -88 -234
-43 -77 -102 -134 -123 -116 -9 7 -13 7 -13 0 0 -6 -12 -18 -27 -26 -19 -10
-23 -15 -11 -16 9 0 21 -8 27 -17 8 -15 14 -12 51 27 l41 45 -21 -43 c-12 -24
-27 -45 -35 -49 -8 -3 -13 -9 -10 -13 3 -4 -10 -30 -28 -56 -26 -39 -38 -48
-57 -46 -13 1 -25 4 -27 6 -2 2 6 43 18 91 21 89 43 124 81 125 21 0 32 16 24
36 -5 14 -8 13 -28 0 -12 -9 -26 -16 -30 -16 -12 0 -10 49 4 86 10 29 14 31
34 22 13 -6 26 -19 30 -30 3 -10 9 -16 14 -13 12 7 18 65 8 72 -6 3 -7 16 -4
29 5 17 1 26 -14 34 -20 11 -27 35 -12 42 4 2 21 18 37 37 25 28 26 32 8 22
-12 -6 -25 -16 -28 -21 -15 -24 -31 -9 -27 23 5 35 40 76 87 100 42 22 59 21
92 -7z m-2155 -180 c49 -21 57 -34 75 -123 9 -43 31 -114 50 -157 18 -43 31
-81 28 -84 -2 -3 2 -17 9 -31 8 -14 22 -46 31 -71 9 -25 26 -66 36 -92 13 -33
15 -48 7 -48 -18 0 -96 87 -155 175 -29 44 -78 115 -108 158 -30 43 -57 90
-61 105 -3 15 -12 42 -20 60 -19 45 -18 74 6 100 24 26 54 28 102 8z"/>
<path d="M3520 4383 l-24 -5 24 -14 c33 -18 11 -17 -63 2 -33 8 -63 11 -66 7
-3 -5 -31 -15 -61 -21 -65 -14 -112 -43 -117 -70 -3 -24 21 -47 39 -36 7 4 23
9 36 10 13 2 33 11 45 21 11 10 17 12 12 4 -5 -8 3 -6 20 5 15 10 40 19 54 20
14 1 36 2 49 3 37 2 25 19 -20 29 l-43 10 42 1 c23 1 44 -3 47 -8 3 -5 27 -12
53 -16 31 -4 61 -18 87 -39 23 -18 51 -36 64 -39 22 -5 23 -5 8 18 -20 31 -20
41 -1 25 8 -7 15 -9 15 -4 -1 15 -38 54 -51 54 -7 0 -23 10 -35 21 -23 22 -68
30 -114 22z"/>
<path d="M2231 4213 c-40 -47 -69 -108 -57 -121 6 -6 37 26 61 61 6 9 26 18
45 20 19 3 42 8 51 11 30 13 114 13 157 0 39 -12 44 -12 62 6 24 24 28 25 53
3 19 -17 20 -17 8 4 -10 20 -9 22 6 16 14 -5 13 -1 -5 20 -23 24 -28 25 -110
21 -102 -4 -169 -20 -198 -45 -11 -11 -25 -19 -30 -19 -18 0 -8 45 9 48 21 4
23 22 3 22 -8 0 -33 -21 -55 -47z"/>
<path d="M3513 4146 c27 -7 54 -19 60 -25 9 -9 8 -11 -7 -5 -13 5 -17 4 -12
-4 4 -7 1 -12 -6 -13 -7 0 -48 -3 -90 -5 -43 -2 -89 -9 -104 -14 -14 -6 -30
-8 -35 -5 -16 10 -69 -25 -99 -67 -42 -58 -40 -86 4 -53 10 8 23 12 27 9 5 -3
17 0 26 5 16 9 15 10 -6 11 -17 0 -22 4 -17 16 3 8 2 12 -4 9 -6 -3 -10 -2
-10 3 0 5 8 12 18 16 9 3 27 10 39 15 20 9 25 6 37 -18 21 -40 69 -58 103 -40
14 8 30 25 36 39 6 14 12 26 13 28 0 1 9 0 18 -4 21 -8 21 -40 0 -48 -9 -4
-15 -9 -12 -11 3 -3 19 2 37 11 23 11 35 13 40 6 10 -17 54 -11 78 11 18 16
20 23 11 43 -6 13 -19 26 -30 29 -10 4 -23 15 -29 27 -13 24 -68 48 -106 47
-21 0 -16 -3 20 -13z"/>
<path d="M2605 4044 c20 -16 19 -16 -4 -9 -14 4 -21 3 -18 -2 4 -6 -31 -17
-81 -26 -48 -8 -106 -20 -129 -25 -48 -10 -51 -8 -25 21 16 19 16 20 -4 9 -38
-20 -84 -70 -84 -91 0 -23 0 -23 83 -25 52 -2 57 0 40 12 -17 13 -17 14 6 33
30 25 32 24 56 -13 28 -45 64 -51 159 -29 44 11 89 18 102 16 30 -3 30 0 -3
36 -16 16 -28 32 -29 37 -2 22 -20 44 -45 57 -37 19 -49 19 -24 -1z"/>
<path d="M3200 3586 c0 -4 7 -23 15 -43 23 -54 22 -110 -1 -128 -25 -19 -54
-19 -54 0 0 9 -11 20 -24 26 -18 9 -32 7 -66 -11 -25 -13 -54 -20 -71 -18 -16
3 -30 0 -32 -6 -2 -7 -22 -2 -51 12 -50 24 -60 22 -90 -16 -11 -14 -24 -21
-34 -17 -11 4 -9 -2 7 -19 28 -30 71 -42 86 -24 23 29 50 35 129 27 43 -4 83
-12 89 -18 6 -6 30 -11 52 -11 86 0 127 93 87 195 -10 27 -24 51 -31 53 -6 2
-11 1 -11 -2z"/>
<path d="M3057 3132 c-16 -7 -31 -20 -34 -28 -5 -13 -8 -13 -28 0 -12 8 -37
17 -56 21 -29 5 -43 0 -94 -34 -47 -32 -66 -40 -87 -35 -41 8 -67 -3 -61 -27
3 -12 11 -18 19 -15 16 6 74 -40 74 -59 0 -15 61 -77 69 -70 2 3 -2 11 -8 19
-7 8 -10 20 -7 25 4 5 -2 16 -12 23 -11 7 -22 23 -26 35 -8 26 11 34 84 33 25
0 113 0 197 0 l152 1 -15 -31 c-9 -16 -20 -32 -25 -36 -6 -3 -14 -17 -20 -31
-5 -13 -13 -22 -18 -18 -5 3 -22 -6 -37 -20 -17 -16 -39 -25 -59 -25 -17 0
-35 -3 -38 -7 -9 -9 -71 -8 -85 1 -7 4 -16 5 -21 1 -5 -3 -16 2 -24 10 -9 8
-17 10 -19 5 -2 -7 -14 -7 -35 -1 -20 6 -35 6 -38 0 -4 -5 1 -9 9 -9 9 0 16
-4 16 -9 0 -5 16 -16 36 -26 27 -13 33 -19 23 -26 -11 -6 -11 -9 2 -14 38 -14
271 -1 277 16 2 5 9 9 16 9 7 0 30 16 50 35 21 19 42 35 47 35 5 0 9 5 9 10 0
6 -13 10 -30 10 -22 0 -28 4 -23 15 3 9 8 14 10 11 11 -11 33 24 33 53 0 21 8
35 29 50 16 12 34 21 40 21 18 0 13 18 -9 30 -10 6 -17 16 -14 24 3 7 -2 16
-10 19 -9 4 -17 -1 -21 -13 -13 -41 -30 -42 -96 -6 -76 42 -105 47 -142 28z"/>
<path d="M2874 1547 c-53 -36 -78 -59 -76 -70 2 -11 -2 -15 -13 -11 -9 4 -33
-7 -58 -25 -23 -18 -51 -38 -62 -46 -18 -13 -16 -13 15 -3 19 6 58 19 86 28
l51 18 41 -63 c23 -34 45 -71 49 -81 3 -11 29 -58 56 -106 40 -71 54 -88 73
-88 12 0 25 -4 28 -9 3 -4 26 -4 51 2 32 7 56 7 83 -1 34 -10 38 -15 38 -44
-1 -18 -8 -41 -16 -51 -8 -9 -13 -30 -12 -45 2 -16 -3 -47 -11 -70 -16 -46 -7
-63 21 -39 32 28 58 29 70 5 10 -22 11 -22 11 8 1 18 -12 56 -27 85 -30 59
-34 109 -9 137 8 9 33 62 55 117 86 213 89 218 156 219 l44 1 -20 27 c-36 51
-120 138 -133 138 -7 0 -18 -7 -25 -15 -10 -13 -9 -15 8 -15 18 0 15 -7 -22
-45 -25 -25 -40 -45 -36 -45 5 0 2 -12 -6 -27 -7 -16 -14 -33 -14 -38 0 -6 -8
-15 -17 -21 -14 -8 -18 -25 -18 -67 0 -31 -4 -55 -10 -54 -5 1 -13 -23 -17
-53 -4 -30 -9 -61 -10 -67 -1 -9 -26 -13 -88 -13 l-86 0 -12 33 c-6 17 -11 35
-11 40 0 4 -11 26 -25 50 -21 35 -30 65 -35 110 -1 4 -9 15 -19 25 -10 10 -32
44 -49 75 l-30 56 22 21 c12 11 38 23 58 27 23 3 37 12 40 24 3 11 2 19 -2 19
-4 0 -43 -24 -87 -53z"/>
</g>
</svg>
